<?xml version="1.0" encoding="iso-8859-1"?>
<!-- Uploaded to: SVG Repo, www.svgrepo.com, Generator: SVG Repo Mixer Tools -->
<svg height="800px" width="800px" version="1.1" id="Layer_1" xmlns="http://www.w3.org/2000/svg" xmlns:xlink="http://www.w3.org/1999/xlink" 
	 viewBox="0 0 512 512" xml:space="preserve">
<g>
	<path style="fill:#B0B6BB;" d="M308.145,406.069c-1.836,5.12-6.691,8.828-12.42,8.828h-70.621c-5.729,0-10.593-3.708-12.429-8.828
		H5.102c-2.825,0-5.102,2.286-5.102,5.102v25.106c0,2.816,2.278,5.102,5.102,5.102h501.795c2.816,0,5.102-2.286,5.102-5.102v-25.106
		c0-2.816-2.286-5.102-5.102-5.102H308.145z"/>
	<path style="fill:#E8EDEE;" d="M212.678,406.069c1.836,5.12,6.691,8.828,12.42,8.828h70.621c5.729,0,10.593-3.708,12.429-8.828
		H494.34V97.103c0-14.627-11.855-26.483-26.483-26.483H44.133c-14.627,0-26.483,11.855-26.483,26.483v308.966H212.678z"/>
	<polygon style="fill:#7383BF;" points="52.963,370.759 459.032,370.759 459.032,105.931 52.963,105.931 	"/>
	<g>
		<path style="fill:#FFFFFF;" d="M308.963,233.931h11.034c6.082,0,11.034-4.952,11.034-11.034s-4.952-11.034-11.034-11.034h-11.034
			V233.931z M300.135,282.483c-4.873,0-8.828-3.955-8.828-8.828v-70.621c0-4.873,3.955-8.828,8.828-8.828h19.862
			c15.819,0,28.69,12.871,28.69,28.69s-12.871,28.69-28.69,28.69h-11.034v22.069C308.963,278.528,305.008,282.483,300.135,282.483
			L300.135,282.483z"/>
		<path style="fill:#FFFFFF;" d="M247.165,282.483c-3.663,0-6.965-2.269-8.263-5.729l-18.22-48.578l-18.211,48.578
			c-1.359,3.619-4.917,5.923-8.766,5.72c-3.866-0.221-7.124-2.931-8.068-6.674l-17.655-70.621
			c-1.183-4.732,1.695-9.525,6.426-10.708c4.732-1.174,9.516,1.695,10.708,6.418l10.778,43.123l16.525-44.076
			c1.289-3.443,4.582-5.729,8.263-5.729c3.681,0,6.983,2.286,8.271,5.729l16.525,44.076l10.778-43.123
			c1.192-4.723,6.003-7.592,10.708-6.418c4.732,1.183,7.601,5.976,6.426,10.708L255.737,275.8c-0.945,3.743-4.202,6.453-8.068,6.674
			C247.501,282.483,247.333,282.483,247.165,282.483"/>
	</g>
</g>
</svg>